# xmcd
#
# Track frame offsets: 
#        150
#        13730
#        54540
#        84538
#        124058
#        163193
#        219635
#        260688
#
# Disc length: 4249 seconds
#
# Revision: 2
# Processed by: cddbd v1.5.2PL0 Copyright (c) Steve Scherf et al.
# Submitted via: ExactAudioCopyFreeDBPlugin 1.0
#
DISCID=70109708
DTITLE=Art Blakey - Now's The Time
DYEAR=2007
DGENRE=Jazz
TTITLE0=The Thin Man
TTITLE1=Now's The Time
TTITLE2=Quicksilver
TTITLE3=Minor's Holiday
TTITLE4=Prince Albert
TTITLE5=Soft Winds
TTITLE6=On The Street Where You Live
TTITLE7=A Night In Tunisia
EXTD=
EXTT0=
EXTT1=
EXTT2=
EXTT3=
EXTT4=
EXTT5=
EXTT6=
EXTT7=
PLAYORDER=
